<svg width="32" height="32" viewBox="0 0 32 32" fill="none" xmlns="http://www.w3.org/2000/svg">
<path d="M6.77374 19.5367C6.77374 20.7275 7.73092 21.6912 8.91848 21.6912C9.47007 21.6912 10.0022 21.4803 10.424 21.0617C10.8004 20.6854 10.9594 20.1954 11.1119 19.4589C11.352 18.2778 11.7706 17.6224 12.4519 16.941L13.3864 16.0065C14.1002 15.2927 14.6843 15.4063 15.025 15.7145C15.4111 16.0649 15.3786 16.5841 15.1028 17.0967C14.8173 17.6289 14.3566 18.0215 14.0645 18.5958C13.9348 18.8521 13.8472 19.1636 13.8472 19.5432C13.8472 20.7308 14.8108 21.6944 15.9984 21.6944C16.378 21.6944 16.6733 21.6068 16.9296 21.4771C17.7375 21.065 18.1885 20.2019 19.5124 20.2019C20.0997 20.2019 20.6383 20.3706 21.2775 20.8638C21.9134 21.3538 22.2833 21.6977 23.075 21.6977C24.2626 21.6977 25.2263 20.734 25.2263 19.5465C25.2263 18.3589 24.2626 17.3952 23.075 17.3952C22.2833 17.3952 21.9134 17.7392 21.2775 18.2291C20.6383 18.7191 20.1029 18.8846 19.5124 18.8846C18.8634 18.8846 18.1334 18.6996 17.4844 18.0539C16.8387 17.405 16.6538 16.6749 16.6538 16.026C16.6538 15.4387 16.816 14.9001 17.3092 14.2609C17.7992 13.6249 18.1464 13.255 18.1464 12.4536C18.1464 11.266 17.1827 10.3024 15.9984 10.3024C14.9276 10.3024 14.1197 11.0681 13.9056 11.9539C13.7336 12.6515 13.8439 13.3232 13.4643 13.9559C13.3572 14.1343 13.2209 14.3193 13.0327 14.5075L11.5304 16.013C10.8491 16.6944 10.1839 17.113 8.92497 17.3693C8.26954 17.5023 7.80231 17.6646 7.42592 18.0409C7.00736 18.4595 6.78023 18.9949 6.78023 19.5465" fill="white"/>
</svg>
