<?xml version="1.0" encoding="utf-8"?>
<svg xmlns="http://www.w3.org/2000/svg" width="738" height="99" viewBox="0 0 738 99" fill="none">
<path d="M334.782 80.6702C330.434 80.6702 326.628 79.9568 323.367 78.5299C320.105 77.035 317.557 75.0985 315.723 72.7203C313.888 70.2742 312.767 67.5902 312.359 64.6684L321.43 61.5089H321.838C322.178 63.6832 322.891 65.5857 323.979 67.2165C325.134 68.8473 326.628 70.1043 328.463 70.9876C330.366 71.803 332.472 72.2107 334.782 72.2107C336.685 72.2107 338.384 71.9049 339.878 71.2934C341.373 70.6139 342.494 69.6966 343.242 68.5415C344.057 67.3864 344.465 66.0614 344.465 64.5665C344.465 62.664 343.853 61.1691 342.63 60.0819C341.475 58.9268 339.742 58.0435 337.432 57.432L327.342 55.0877C324.896 54.4762 322.721 53.6948 320.819 52.7435C318.916 51.7243 317.32 50.2634 316.029 48.3609C314.738 46.4583 314.092 44.0462 314.092 41.1244C314.092 38.2706 314.907 35.6885 316.538 33.3783C318.169 31.0001 320.411 29.1315 323.265 27.7726C326.187 26.4136 329.516 25.7341 333.253 25.7341C336.855 25.7341 340.082 26.3117 342.936 27.4668C345.79 28.6219 348.1 30.2527 349.867 32.3591C351.701 34.3975 352.924 36.8097 353.536 39.5956L344.363 42.3475H343.955C343.48 39.6295 342.257 37.5231 340.286 36.0283C338.384 34.4655 336.039 33.6841 333.253 33.6841C330.603 33.6841 328.429 34.3636 326.73 35.7225C325.1 37.0815 324.284 38.6443 324.284 40.4109C324.284 42.0417 324.862 43.3667 326.017 44.3859C327.172 45.3372 328.803 46.0846 330.909 46.6282L339.98 48.8705C343.038 49.6179 345.62 50.5352 347.726 51.6224C349.833 52.7096 351.532 54.2724 352.823 56.3108C354.114 58.3493 354.759 61.0672 354.759 64.4646C354.759 67.5223 353.91 70.2742 352.211 72.7203C350.512 75.1664 348.134 77.103 345.076 78.5299C342.087 79.9568 338.655 80.6702 334.782 80.6702Z" fill="white"/>
<path d="M282.686 80.6702C277.658 80.6702 273.14 79.4811 269.131 77.103C265.122 74.7248 261.996 71.4633 259.754 67.3184C257.511 63.1056 256.39 58.3832 256.39 53.1512C256.39 47.9192 257.511 43.2308 259.754 39.086C261.996 34.9411 265.122 31.6796 269.131 29.3014C273.14 26.9232 277.658 25.7341 282.686 25.7341C287.714 25.7341 292.233 26.9232 296.242 29.3014C300.251 31.6796 303.376 34.9751 305.619 39.1879C307.929 43.3327 309.084 47.9872 309.084 53.1512C309.084 58.3832 307.929 63.1056 305.619 67.3184C303.376 71.4633 300.251 74.7248 296.242 77.103C292.233 79.4811 287.714 80.6702 282.686 80.6702ZM282.686 72.0068C285.812 72.0068 288.598 71.1915 291.044 69.5607C293.49 67.93 295.393 65.6877 296.752 62.8338C298.178 59.98 298.892 56.7525 298.892 53.1512C298.892 49.55 298.178 46.3564 296.752 43.5705C295.393 40.7167 293.49 38.4744 291.044 36.8437C288.598 35.2129 285.812 34.3975 282.686 34.3975C279.561 34.3975 276.775 35.2129 274.329 36.8437C271.883 38.4744 269.98 40.7167 268.621 43.5705C267.262 46.3564 266.583 49.55 266.583 53.1512C266.583 56.7525 267.262 59.98 268.621 62.8338C269.98 65.6877 271.883 67.93 274.329 69.5607C276.775 71.1915 279.561 72.0068 282.686 72.0068Z" fill="white"/>
<path d="M247.334 80.6881C242.645 80.6881 238.874 79.3292 236.02 76.6112C233.234 73.8253 231.841 69.7485 231.841 64.3805V35.1289H222.363V26.7712C225.692 26.7712 227.968 26.5334 229.191 26.0578C230.482 25.5142 231.298 24.461 231.638 22.8982C232.045 21.3354 232.249 18.5155 232.249 14.4386H241.626V26.7712H255.487V35.1289H241.626V63.769C241.626 66.5549 242.305 68.6273 243.664 69.9863C245.091 71.3452 246.858 72.0247 248.964 72.0247C250.12 72.0247 251.139 71.9228 252.022 71.7189C252.973 71.5151 253.891 71.1074 254.774 70.4959V78.9554C254.094 79.4311 253.041 79.8388 251.614 80.1785C250.187 80.5182 248.761 80.6881 247.334 80.6881Z" fill="white"/>
<path d="M170.269 98.3028V91.3721V35.3148V27.161V26.7534H180.054V34.3975C181.617 31.8834 183.961 29.811 187.086 28.1803C190.28 26.5495 193.677 25.7341 197.279 25.7341C201.899 25.7341 206.078 26.9232 209.815 29.3014C213.62 31.6796 216.576 34.9751 218.682 39.1879C220.789 43.3327 221.842 48.0211 221.842 53.2532C221.842 58.4852 220.755 63.2076 218.58 67.4203C216.474 71.5652 213.518 74.8267 209.713 77.2049C205.976 79.5151 201.729 80.6702 196.973 80.6702C193.507 80.6702 190.212 79.8549 187.086 78.2241C183.961 76.5934 181.617 74.5209 180.054 72.0068V91.3721V98.3028V98.7105H170.269V98.3028ZM195.546 72.0068C198.672 72.0068 201.457 71.2254 203.904 69.6626C206.35 68.0998 208.252 65.8915 209.611 63.0377C210.97 60.1839 211.65 56.9563 211.65 53.3551C211.65 49.6179 210.97 46.3224 209.611 43.4686C208.252 40.6148 206.384 38.4065 204.005 36.8437C201.627 35.2129 198.909 34.3975 195.852 34.3975C192.998 34.3975 190.416 35.077 188.106 36.436C185.795 37.727 183.927 39.5616 182.5 41.9398C181.073 44.25 180.258 46.9 180.054 49.8897V56.7185C180.258 59.7082 181.039 62.3582 182.398 64.6684C183.825 66.9787 185.659 68.7793 187.902 70.0703C190.212 71.3613 192.76 72.0068 195.546 72.0068Z" fill="white"/>
<path d="M98.2202 79.246L100.666 73.1307L127.064 6.16772H137.358L163.756 73.1307L166.304 79.246V79.6537H154.889L154.685 79.246L152.341 73.1307L132.16 20.233L111.776 73.1307L109.432 79.246L109.228 79.6537H98.2202V79.246ZM111.878 52.1347H151.831V61.4096H111.878V52.1347Z" fill="white"/>
<path d="M3.68161 24.4335C1.87687 28.2297 0.618081 32.337 0 36.6494H35.9137L43.755 24.4335H3.68161Z" fill="white"/>
<path d="M84.6417 36.6492C84.0236 32.3354 82.7648 28.2309 80.9601 24.4333H59.4334L51.5949 12.2159H72.2391C64.5293 4.66036 53.9696 0 42.3209 0C30.6721 0 20.1124 4.66036 12.4012 12.2159H51.5963L43.755 24.4333L51.5963 36.6492H84.6417Z" fill="white"/>
<path d="M20.2425 61.0829L12.4012 73.2988C20.1124 80.8544 30.6707 85.5147 42.3209 85.5147C53.9711 85.5147 64.5293 80.8544 72.2405 73.2988H28.0838L20.2425 61.0829Z" fill="white"/>
<path d="M28.071 48.8664H0C0.618081 53.1802 1.87687 57.2848 3.68161 61.0823H20.234L28.071 48.8664Z" fill="white"/>
<path d="M43.7552 48.8653L35.9139 36.6494L28.0726 48.8653H28.0825L28.074 48.8667L35.9139 61.0827H80.9602C82.765 57.2865 84.0238 53.1792 84.6419 48.8667H43.7552V48.8653Z" fill="white"/>
<path d="M716.431 26.7069H733.489V27.6207L725.772 31.8851L693.282 60.3142V55.3391L718.969 31.7836L716.33 27.6207L716.431 26.7069ZM709.527 44.6782L731.052 74.4272L737.55 78.4886V79.4023H718.766V78.4886L722.219 74.6303L704.044 49.1456L709.527 44.6782ZM697.14 74.5288L702.115 78.4886V79.4023H684.956V78.4886L689.931 74.5288V11.6801L684.956 8.02496V7.11116L697.14 4.47131V74.5288Z" fill="white"/>
<path d="M653.879 79.4024V78.4886L658.854 74.5288V33.205L653.879 29.5499V28.6361L666.063 25.9962V74.4273L672.561 78.4886V79.4024H653.879ZM665.86 47.9273L665.149 41.9368C665.962 38.6878 667.045 35.8449 668.398 33.4081C669.752 30.9036 671.41 29.0084 673.373 27.7223C675.336 26.3685 677.57 25.6916 680.075 25.6916C680.887 25.6916 681.598 25.7255 682.207 25.7932C682.884 25.8608 683.459 25.9962 683.933 26.1993L683.019 33.8142C680.176 32.8666 677.739 32.7312 675.709 33.4081C673.678 34.0173 671.986 35.1342 670.632 36.7587C669.278 38.3155 668.195 40.1092 667.383 42.1399C666.638 44.1706 666.131 46.0997 665.86 47.9273Z" fill="white"/>
<path d="M623.879 80.4177C619.005 80.4177 614.639 79.2331 610.781 76.864C606.99 74.4949 604.012 71.2459 601.846 67.1169C599.68 62.9879 598.597 58.2836 598.597 53.0039C598.597 49.078 599.206 45.4566 600.425 42.1399C601.711 38.8232 603.471 35.9464 605.704 33.5096C608.006 31.0052 610.679 29.076 613.725 27.7223C616.839 26.3685 620.223 25.6916 623.879 25.6916C628.82 25.6916 633.186 26.8762 636.976 29.2453C640.835 31.6144 643.847 34.8634 646.013 38.9924C648.246 43.0537 649.363 47.7242 649.363 53.0039C649.363 56.9298 648.72 60.585 647.434 63.9694C646.148 67.2861 644.354 70.1967 642.053 72.7012C639.819 75.138 637.146 77.0333 634.032 78.387C630.986 79.7408 627.602 80.4177 623.879 80.4177ZM623.879 76.661C625.909 76.661 627.805 76.2887 629.564 75.5441C631.324 74.7995 632.915 73.7504 634.337 72.3966C635.826 70.9752 637.078 69.2829 638.093 67.32C639.176 65.357 639.989 63.191 640.53 60.8219C641.139 58.3851 641.444 55.7791 641.444 53.0039C641.444 48.4011 640.665 44.3398 639.109 40.82C637.552 37.2325 635.453 34.4573 632.814 32.4943C630.174 30.4637 627.229 29.4483 623.98 29.4483C621.95 29.4483 620.054 29.8206 618.294 30.5652C616.534 31.3098 614.91 32.3928 613.421 33.8142C611.999 35.168 610.781 36.8264 609.766 38.7893C608.75 40.6846 607.938 42.8506 607.329 45.2874C606.787 47.6565 606.517 50.2287 606.517 53.0039C606.517 57.6067 607.261 61.7018 608.75 65.2893C610.307 68.8768 612.405 71.6859 615.045 73.7165C617.685 75.6795 620.63 76.661 623.879 76.661Z" fill="white"/>
<path d="M542.067 79.4023L526.025 31.682L520.542 27.6207V26.7069H538.107V27.6207L533.539 31.5805L546.027 69.8583L558.008 33.205L557.399 31.682L552.931 27.6207V26.7069H569.786V27.6207L565.318 31.5805L577.401 69.5537L589.381 31.5805L584.914 27.6207V26.7069H600.042V27.6207L594.56 31.682L577.908 79.4023H573.542L560.749 39.8046L546.332 79.4023H542.067Z" fill="white"/>
<path d="M512.079 80.4177C509.71 80.4177 507.577 79.9777 505.682 79.0978C503.854 78.1501 502.399 76.7287 501.316 74.8334C500.233 72.8704 499.692 70.3998 499.692 67.4215V30.6667H489.945V28.0269C492.043 27.7561 493.87 27.3838 495.427 26.91C497.052 26.3685 498.439 25.6239 499.59 24.6763C500.809 23.661 501.756 22.3072 502.433 20.615C503.11 18.9228 503.618 16.7906 503.956 14.2184H506.9V26.7069L520.607 25.8947L521.013 30.6667H506.9V67.8276C506.9 70.8736 507.611 73.0058 509.033 74.2242C510.454 75.3749 512.18 75.9502 514.211 75.9502C515.294 75.9502 516.343 75.8487 517.358 75.6456C518.441 75.3749 519.389 74.9349 520.201 74.3257L520.607 77.0671C519.863 77.8117 518.78 78.5562 517.358 79.3008C515.937 80.0454 514.177 80.4177 512.079 80.4177Z" fill="white"/>
<path d="M450.295 52.1916C450.295 56.8621 451.141 60.8896 452.834 64.274C454.593 67.6584 456.895 70.2644 459.738 72.092C462.648 73.8519 465.796 74.7318 469.18 74.7318C471.956 74.7318 474.426 74.2242 476.592 73.2089C478.826 72.1935 480.789 70.7044 482.481 68.7414C484.173 66.7108 485.561 64.2063 486.644 61.228L489.588 62.1418C488.776 65.797 487.321 69.0122 485.222 71.7874C483.192 74.4949 480.654 76.6271 477.608 78.184C474.562 79.6731 471.143 80.4177 467.353 80.4177C463.562 80.4177 460.144 79.7408 457.098 78.387C454.052 76.9656 451.412 75.0026 449.178 72.4981C447.012 69.9937 445.32 67.0831 444.102 63.7663C442.951 60.4496 442.376 56.8621 442.376 53.0039C442.376 49.1456 442.917 45.592 444 42.343C445.151 39.0262 446.775 36.1156 448.874 33.6112C450.972 31.1067 453.51 29.1776 456.489 27.8238C459.467 26.4023 462.851 25.6916 466.642 25.6916C469.823 25.6916 472.632 26.1316 475.069 27.0115C477.574 27.8915 479.706 29.1099 481.466 30.6667C483.293 32.2236 484.749 34.085 485.832 36.251C486.982 38.3493 487.795 40.6508 488.268 43.1552C488.81 45.592 488.979 48.1642 488.776 50.8717H446.742V47.4196H480.958C480.89 44.9828 480.484 42.6814 479.74 40.5154C479.063 38.3493 478.115 36.4202 476.897 34.728C475.746 33.0358 474.291 31.7159 472.531 30.7682C470.839 29.8206 468.876 29.3468 466.642 29.3468C464.07 29.3468 461.768 29.956 459.738 31.1744C457.707 32.3928 455.981 34.085 454.56 36.251C453.138 38.417 452.055 40.8538 451.311 43.5614C450.634 46.2689 450.295 49.1456 450.295 52.1916Z" fill="white"/>
<path d="M427.516 79.4023L385.176 20.2089L385.684 74.0211L393.502 78.4885V79.4023H374.109V78.4885L380.404 74.1226L380.912 14.1169L375.835 7.11115V6.19736H384.77L428.328 67.1169L427.82 11.5786L420.002 7.11115V6.19736H439.395V7.11115L433.201 11.477L432.592 79.4023H427.516Z" fill="white"/>
</svg>