<svg width="2922" height="582" viewBox="0 0 2921.9 582.0" fill="none" xmlns="http://www.w3.org/2000/svg">
  <g transform="translate(-424.3, -28.4) scale(0.4822)">
    <path d="M1423.36 305.319L1403.68 311.397V385.199C1403.68 422.245 1379.37 455.817 1344.35 467.105L1142.34 530.777V640.466L1407.73 556.824C1470.83 537.144 1508.16 483.023 1508.16 411.536V362.624C1508.45 329.052 1469.96 290.559 1423.36 305.319ZM1001.1 274.062L1376.19 155.69C1417.28 142.666 1449.7 143.534 1469.38 145.85L1422.2 111.409C1400.5 95.7802 1334.51 59.024 1252.89 85.0717L896.62 197.366L1001.1 274.062Z" fill="white"/>
    <path d="M1572.7 598.79C1572.7 598.79 1638.98 538.591 1638.98 409.51V354.521C1638.98 269.431 1540.87 131.089 1384 180.58L1011.81 298.084V988.348L1116.29 955.354V785.755L1452.3 679.827C1514.82 660.147 1567.2 709.348 1567.2 764.048V831.193C1567.2 899.786 1506.71 996.741 1411.79 1026.55L896.62 1188.92L1001.1 1265.61L1465.04 1119.17C1562.86 1087.91 1671.39 1003.98 1671.39 825.405V756.813C1671.68 649.149 1572.7 598.79 1572.7 598.79ZM1415.55 581.714L1116.29 676.065V374.78L1415.55 280.429C1478.06 260.749 1534.5 310.818 1534.5 362.335V411.536C1534.5 497.493 1487.32 559.14 1415.55 581.714Z" fill="white"/>
    <path d="M1540.87 831.193V764.048C1540.87 726.134 1504.11 690.825 1460.12 704.717L1436.39 712.242V805.146C1436.39 850.874 1407.15 891.103 1363.16 904.706L985.471 1023.66V294.9L880.991 218.204V1166.05L1142.34 1083.71L1403.68 1001.37C1485.88 975.903 1540.87 892.84 1540.87 831.193Z" fill="white"/>
  </g>
  <g transform="translate(421.9, -1358.0)">
    <path d="M154.26 1808.27C117.215 1808.27 87.9833 1796.69 66.2769 1773.83V1802.19H0V1382.83L66.2769 1361.99V1528.4C87.9833 1505.83 117.215 1494.54 154.26 1494.54C197.962 1494.54 234.14 1509.88 262.503 1540.27C290.866 1570.95 305.047 1607.7 305.047 1651.12C305.047 1694.53 290.866 1731.58 262.503 1761.96C234.14 1792.93 198.252 1808.27 154.26 1808.27ZM147.025 1747.78C173.072 1747.78 194.779 1738.52 211.565 1719.71C228.351 1700.9 237.034 1678.32 237.034 1651.41C237.034 1624.49 228.641 1601.63 211.565 1583.1C194.779 1564.29 173.072 1555.03 147.025 1555.03C112.584 1555.03 85.3786 1568.92 66.2769 1596.71V1705.82C85.0891 1733.89 112.295 1747.78 147.025 1747.78ZM400.266 1447.08C388.111 1447.08 377.981 1442.74 369.298 1434.05C360.616 1425.37 356.275 1414.95 356.275 1402.51C356.275 1390.35 360.616 1380.22 369.298 1371.54C377.981 1362.86 388.4 1358.51 400.266 1358.51C412.711 1358.51 423.13 1362.86 431.813 1371.54C440.495 1380.22 444.837 1390.64 444.837 1402.51C444.837 1414.95 440.495 1425.66 431.813 1434.05C423.42 1442.74 413.001 1447.08 400.266 1447.08ZM367.273 1802.19V1500.62H433.549V1802.19H367.273ZM659.586 1805.09C628.618 1805.09 603.438 1796.69 584.047 1779.33C564.656 1762.25 554.816 1737.36 554.816 1704.95V1559.66H480.146V1500.62H554.816V1434.05L621.093 1412.93V1500.33H713.417V1559.37H621.093V1693.95C621.093 1728.1 636.721 1745.18 668.268 1745.18C684.765 1745.18 698.947 1741.42 711.102 1734.18L731.072 1789.75C709.944 1800.17 686.212 1805.09 659.586 1805.09ZM774.774 1939.96V1500.62H841.051V1528.4C862.758 1505.83 891.989 1494.54 929.034 1494.54C972.737 1494.54 1008.91 1509.88 1037.28 1540.27C1065.64 1570.95 1079.82 1607.7 1079.82 1651.12C1079.82 1694.53 1065.64 1731.58 1037.28 1761.96C1008.91 1792.64 972.737 1807.69 929.034 1807.69C891.989 1807.69 862.758 1796.12 841.051 1773.25V1918.54L774.774 1939.96ZM922.088 1747.78C948.136 1747.78 969.842 1738.52 986.629 1719.71C1003.42 1700.9 1012.1 1678.32 1012.1 1651.41C1012.1 1624.49 1003.7 1601.63 986.629 1583.1C969.842 1564.29 948.136 1555.03 922.088 1555.03C887.648 1555.03 860.442 1568.92 841.341 1596.71V1705.82C860.153 1733.89 887.069 1747.78 922.088 1747.78ZM1271.13 1808.27C1227.43 1808.27 1191.25 1792.93 1163.17 1762.54C1135.1 1731.86 1120.92 1695.11 1120.92 1651.7C1120.92 1608.28 1135.1 1571.24 1163.17 1540.85C1191.25 1510.17 1227.43 1495.12 1271.13 1495.12C1308.17 1495.12 1337.4 1506.41 1359.11 1528.98V1501.2H1425.39V1802.77H1359.11V1774.41C1337.4 1796.69 1308.17 1808.27 1271.13 1808.27ZM1278.94 1747.78C1313.38 1747.78 1340.3 1733.6 1359.11 1705.53V1596.42C1339.72 1568.63 1313.09 1554.74 1278.94 1554.74C1252.89 1554.74 1231.19 1564 1214.4 1582.81C1197.62 1601.63 1188.93 1624.2 1188.93 1651.12C1188.93 1678.03 1197.33 1700.9 1214.4 1719.42C1231.48 1738.52 1252.89 1747.78 1278.94 1747.78ZM1497.16 1802.19V1500.62H1563.44V1532.46C1583.99 1506.99 1613.51 1494.54 1652 1494.54C1687.89 1494.54 1716.54 1506.12 1737.96 1529.27C1759.38 1552.43 1770.09 1583.1 1770.09 1621.89V1802.19H1703.81V1632.88C1703.81 1608.28 1698.02 1589.18 1686.73 1575.58C1675.16 1561.98 1658.95 1555.03 1637.53 1555.03C1602.22 1555.03 1577.33 1570.95 1563.44 1602.78V1802.48H1497.16V1802.19ZM1978.47 1808.27C1934.76 1808.27 1898.59 1792.93 1870.51 1762.54C1842.44 1731.86 1828.26 1695.11 1828.26 1651.7C1828.26 1608.28 1842.44 1571.24 1870.51 1540.85C1898.59 1510.17 1934.76 1495.12 1978.47 1495.12C2015.51 1495.12 2044.74 1506.41 2066.45 1528.98V1383.4L2132.73 1362.57V1802.77H2066.45V1774.41C2044.74 1796.69 2015.51 1808.27 1978.47 1808.27ZM1986.28 1747.78C2020.72 1747.78 2047.64 1733.6 2066.45 1705.53V1596.42C2047.06 1568.63 2020.43 1554.74 1986.28 1554.74C1960.23 1554.74 1938.53 1564 1921.74 1582.81C1904.95 1601.63 1896.27 1624.2 1896.27 1651.12C1896.27 1678.03 1904.67 1700.9 1921.74 1719.42C1938.82 1738.52 1960.23 1747.78 1986.28 1747.78ZM2345.74 1808.27C2302.04 1808.27 2265.86 1792.93 2237.79 1762.54C2209.71 1731.86 2195.53 1695.11 2195.53 1651.7C2195.53 1608.28 2209.71 1571.24 2237.79 1540.85C2265.86 1510.17 2302.04 1495.12 2345.74 1495.12C2382.79 1495.12 2412.02 1506.41 2433.72 1528.98V1501.2H2500V1802.77H2433.72V1774.41C2412.02 1796.69 2382.79 1808.27 2345.74 1808.27ZM2353.55 1747.78C2387.99 1747.78 2414.91 1733.6 2433.72 1705.53V1596.42C2414.33 1568.63 2387.71 1554.74 2353.55 1554.74C2327.51 1554.74 2305.8 1564 2289.01 1582.81C2272.23 1601.63 2263.54 1624.2 2263.54 1651.12C2263.54 1678.03 2271.94 1700.9 2289.01 1719.42C2306.09 1738.52 2327.51 1747.78 2353.55 1747.78Z" fill="white"/>
  </g>
</svg>