<svg width="180" height="32" viewBox="0 0 180 32" fill="none" xmlns="http://www.w3.org/2000/svg">
<g clip-path="url(#clip0_2112_14249)">
<path fill-rule="evenodd" clip-rule="evenodd" d="M31.4497 4.62032C30.764 2.72689 29.2719 1.23479 27.3797 0.549067C25.6365 0 24.0508 0 20.8229 0H11.1439L11.1452 0.00122479C7.93691 0.00122479 6.33155 0.00122479 4.61662 0.534294C2.72442 1.22002 1.23233 2.71211 0.54661 4.60678C0 6.33894 0 7.94183 0 11.1513V20.8351C0 24.0618 0 25.6512 0.533069 27.3797C1.21879 29.2731 2.71088 30.7652 4.60308 31.4509C6.33401 32 7.93691 32 11.1452 32H20.8389C24.0508 32 25.6525 32 27.3797 31.4509C29.2731 30.7652 30.764 29.2731 31.4497 27.3797C31.9963 25.6475 31.9963 24.0446 31.9963 20.8351V11.1649C31.9963 7.95168 31.9963 6.34879 31.4497 4.62032ZM23.0493 10.9536L21.2043 12.4665C21.044 12.598 20.8099 12.5693 20.6795 12.4081C19.7418 11.2483 18.2657 10.5928 16.6666 10.5928C14.8846 10.5928 13.7768 11.3634 13.7768 12.4712C13.7768 13.3863 14.6438 13.8679 17.2927 14.4459C20.6641 15.1683 22.2053 16.565 22.2053 18.925C22.2053 21.8835 19.7962 24.0674 16.0355 24.2986L15.6686 26.0485C15.6327 26.2196 15.4819 26.3421 15.3071 26.3421H12.4139C12.1754 26.3421 11.9995 26.1195 12.0545 25.8875L12.5189 23.9305C10.6547 23.4001 9.15473 22.3683 8.28027 21.0948C8.17018 20.9345 8.2067 20.7154 8.36023 20.596L10.3824 19.0232C10.5491 18.8935 10.788 18.9315 10.9112 19.103C11.9828 20.5944 13.6267 21.4776 15.607 21.4776C17.389 21.4776 18.7376 20.6107 18.7376 19.3585C18.7376 18.3952 18.0633 17.9618 15.7997 17.4801C11.8985 16.6614 10.3573 15.2165 10.3573 12.8565C10.3573 10.1183 12.6585 8.04985 16.1297 7.7812L16.5087 5.97378C16.5446 5.80273 16.6954 5.68023 16.8702 5.68023H19.7246C19.96 5.68023 20.1354 5.89764 20.0855 6.12777L19.6467 8.15292C21.1405 8.61269 22.3567 9.43481 23.1138 10.4493C23.2312 10.6065 23.201 10.8292 23.0493 10.9536Z" fill="white"/>
<path d="M48.8275 21.6088C50.5244 21.6088 51.7914 20.6315 52.3366 19.0052C52.4022 18.8095 52.6106 18.7011 52.8062 18.767L54.9843 19.5015C55.1824 19.5683 55.2865 19.7868 55.2126 19.9823C54.2024 22.6578 51.9886 24.3258 48.8275 24.3258C44.5047 24.3258 41.3609 20.9013 41.3609 16.0172C41.3609 11.1331 44.5047 7.70862 48.8275 7.70862C51.9886 7.70862 54.2024 9.37667 55.2126 12.0521C55.2865 12.2477 55.1824 12.4661 54.9843 12.5329L52.8062 13.2674C52.6106 13.3334 52.4022 13.225 52.3366 13.0293C51.7914 11.403 50.5244 10.4257 48.8275 10.4257C46.2675 10.4257 44.4598 12.6377 44.4598 16.0172C44.4598 19.3968 46.2675 21.6088 48.8275 21.6088Z" fill="white"/>
<path d="M63.5806 18.5772L61.1553 19.0825C60.0662 19.307 59.2578 19.6551 59.2578 20.6544C59.2578 21.519 59.8978 22.013 60.8859 22.013C62.2669 22.013 63.5806 21.2832 63.5806 19.9021V18.5772ZM56.3723 20.8004C56.3723 18.4987 58.1575 17.5106 60.4816 17.0614L63.5806 16.4439V16.253C63.5806 15.1864 63.0304 14.524 61.6606 14.524C60.5541 14.524 59.9248 14.9738 59.5985 15.8733C59.5364 16.0448 59.3564 16.1437 59.1779 16.1067L57.1492 15.6861C56.9251 15.6396 56.7981 15.4031 56.8797 15.1893C57.5581 13.4114 59.2583 12.0538 61.7729 12.0538C64.6809 12.0538 66.4325 13.4124 66.4325 16.1408V21.0923C66.4325 21.6215 66.6179 21.8541 67.073 21.8745C67.2724 21.8834 67.4318 22.0436 67.4318 22.2432V23.749C67.4318 23.9387 67.2873 24.0986 67.0985 24.1171C65.3284 24.2899 64.3063 23.8878 63.8725 22.9673C63.1203 23.7982 61.9076 24.2809 60.3694 24.2809C58.0902 24.2809 56.3723 22.8999 56.3723 20.8004Z" fill="white"/>
<path d="M69.9836 20.4218C70.1383 20.2811 70.3798 20.2958 70.5134 20.4568C71.2986 21.4034 72.5553 22.0017 73.7753 22.0017C74.8756 22.0017 75.8636 21.6199 75.8636 20.6655C75.8636 19.7113 74.9309 19.6032 73.0567 19.2284C71.1695 18.851 69.0483 18.3638 69.0483 15.8376C69.0483 13.6257 70.9907 12.0538 73.764 12.0538C75.6843 12.0538 77.4127 12.8119 78.3637 13.9112C78.4919 14.0594 78.4878 14.2801 78.3492 14.4187L77.0672 15.7006C76.9175 15.8503 76.6701 15.8463 76.5317 15.6863C75.8052 14.8464 74.7769 14.378 73.6405 14.378C72.5963 14.378 71.9115 14.8383 71.9115 15.5569C71.9115 16.3653 72.7311 16.5113 74.2019 16.8144C76.2342 17.2411 78.7155 17.6902 78.7155 20.3737C78.7155 22.7989 76.4812 24.3259 73.7303 24.3259C71.7072 24.3259 69.6346 23.594 68.5056 22.2326C68.3814 22.0828 68.4022 21.8602 68.5461 21.7293L69.9836 20.4218Z" fill="white"/>
<path d="M80.5892 7.95557H82.7697C82.9737 7.95557 83.139 8.12092 83.139 8.3249V13.5133C83.8016 12.7387 84.8682 12.0537 86.384 12.0537C88.8541 12.0537 90.3474 13.7492 90.3474 16.2979V23.7095C90.3474 23.9135 90.1821 24.0789 89.9781 24.0789H87.7975C87.5935 24.0789 87.4282 23.9135 87.4282 23.7095V17.14C87.4282 15.7478 86.8668 14.7484 85.452 14.7484C84.2956 14.7484 83.139 15.5906 83.139 17.2074V23.7095C83.139 23.9135 82.9737 24.0789 82.7697 24.0789H80.5892C80.3852 24.0789 80.2199 23.9135 80.2199 23.7095V8.3249C80.2199 8.12092 80.3852 7.95557 80.5892 7.95557Z" fill="white"/>
<path d="M100.935 17.8474H105.752L103.326 11.3801L100.935 17.8474ZM105.224 8.19469L111.02 23.5793C111.111 23.8209 110.933 24.0789 110.675 24.0789H108.343C108.189 24.0789 108.051 23.9832 107.997 23.839L106.751 20.5084H99.9468L98.7114 23.838C98.6577 23.9828 98.5195 24.0789 98.3651 24.0789H96.0903C95.8323 24.0789 95.6538 23.821 95.7446 23.5795L101.53 8.1949C101.584 8.05092 101.722 7.95557 101.876 7.95557H104.879C105.032 7.95557 105.17 8.05081 105.224 8.19469Z" fill="white"/>
<path d="M115.284 18.5323C115.284 20.6207 116.474 21.7996 118.057 21.7996C119.921 21.7996 120.92 20.3288 120.92 18.1842C120.92 16.0509 119.921 14.5801 118.057 14.5801C116.474 14.5801 115.284 15.7366 115.284 17.8586V18.5323ZM115.351 22.8551V27.7291C115.351 27.9331 115.186 28.0984 114.982 28.0984H112.801C112.597 28.0984 112.432 27.9331 112.432 27.7291V12.6477C112.432 12.4437 112.597 12.2784 112.801 12.2784H114.982C115.186 12.2784 115.351 12.4437 115.351 12.6477V13.5134C116.07 12.6489 117.193 12.0538 118.697 12.0538C121.976 12.0538 123.862 14.8384 123.862 18.1842C123.862 21.5413 121.976 24.3259 118.697 24.3259C117.193 24.3259 116.07 23.7308 115.351 22.8551Z" fill="white"/>
<path d="M128.252 18.5323C128.252 20.6207 129.442 21.7996 131.025 21.7996C132.889 21.7996 133.888 20.3288 133.888 18.1842C133.888 16.0509 132.889 14.5801 131.025 14.5801C129.442 14.5801 128.252 15.7366 128.252 17.8586V18.5323ZM128.319 22.8551V27.7291C128.319 27.9331 128.154 28.0984 127.95 28.0984H125.769C125.565 28.0984 125.4 27.9331 125.4 27.7291V12.6477C125.4 12.4437 125.565 12.2784 125.769 12.2784H127.95C128.154 12.2784 128.319 12.4437 128.319 12.6477V13.5134C129.038 12.6489 130.161 12.0538 131.665 12.0538C134.944 12.0538 136.83 14.8384 136.83 18.1842C136.83 21.5413 134.944 24.3259 131.665 24.3259C130.161 24.3259 129.038 23.7308 128.319 22.8551Z" fill="white"/>
<path d="M150.09 15.3548C152.088 15.3548 153.132 14.479 153.132 12.9745C153.132 11.4475 152.088 10.5941 150.09 10.5941H146.822V15.3548H150.09ZM146.453 24.0789H144.104C143.9 24.0789 143.735 23.9135 143.735 23.7095V8.3249C143.735 8.12092 143.9 7.95557 144.104 7.95557H150.258C153.907 7.95557 156.186 9.67349 156.186 12.9745C156.186 16.2418 153.907 17.9934 150.258 17.9934H146.822V23.7095C146.822 23.9135 146.657 24.0789 146.453 24.0789Z" fill="white"/>
<path d="M163.956 18.5772L161.531 19.0825C160.441 19.307 159.633 19.6551 159.633 20.6544C159.633 21.519 160.273 22.013 161.261 22.013C162.642 22.013 163.956 21.2832 163.956 19.9021V18.5772ZM156.747 20.8004C156.747 18.4987 158.533 17.5106 160.857 17.0614L163.956 16.4439V16.253C163.956 15.1864 163.406 14.524 162.036 14.524C160.929 14.524 160.3 14.9738 159.974 15.8733C159.912 16.0447 159.732 16.1437 159.553 16.1067L157.524 15.6861C157.3 15.6396 157.173 15.4031 157.255 15.1893C157.933 13.4114 159.633 12.0538 162.148 12.0538C165.056 12.0538 166.808 13.4124 166.808 16.1408V21.0923C166.808 21.6215 166.993 21.8541 167.448 21.8745C167.648 21.8834 167.807 22.0436 167.807 22.2432V23.749C167.807 23.9387 167.662 24.0986 167.474 24.1171C165.704 24.2899 164.682 23.8878 164.248 22.9673C163.495 23.7982 162.283 24.2809 160.745 24.2809C158.465 24.2809 156.747 22.8999 156.747 20.8004Z" fill="white"/>
<path d="M170.614 28.1994C170.216 28.1994 170.001 28.189 169.779 28.1682C169.59 28.1504 169.446 27.9906 169.446 27.8006V26.1343C169.446 25.9191 169.629 25.7493 169.844 25.7662C169.999 25.7784 170.149 25.7855 170.344 25.7855C171.209 25.7855 171.647 25.5497 172.006 24.6515L172.421 23.6297L168.342 12.7776C168.252 12.5361 168.43 12.2783 168.688 12.2783H170.935C171.092 12.2783 171.232 12.3779 171.284 12.5265L173.982 20.2951L176.614 12.5291C176.665 12.3792 176.806 12.2783 176.964 12.2783H179.141C179.399 12.2783 179.578 12.5359 179.487 12.7774L174.914 24.9659C174.195 26.9083 173.14 28.1994 170.614 28.1994Z" fill="white"/>
</g>
<defs>
<clipPath id="clip0_2112_14249">
<rect width="179.511" height="32" fill="white"/>
</clipPath>
</defs>
</svg>
