<svg width="152" height="38" viewBox="0 0 152 38" fill="none" xmlns="http://www.w3.org/2000/svg">
<path d="M75.2665 11.5229C74.2424 11.5229 73.4268 12.3396 73.4268 13.365C73.4268 14.3904 74.2424 15.207 75.2665 15.207C76.2905 15.207 77.1062 14.3904 77.1062 13.365C77.1062 12.3305 76.2905 11.5229 75.2665 11.5229Z" fill="white"/>
<path d="M76.6619 16.9219H73.8706V27.9559H76.6619V16.9219Z" fill="white"/>
<path d="M66.3032 16.3958C63.0226 16.3958 60.4126 18.9365 60.4126 22.1941C60.4126 25.4245 63.0226 27.9924 66.3032 27.9924C69.5838 27.9924 72.1938 25.4335 72.1938 22.1941C72.1938 18.9274 69.5838 16.3958 66.3032 16.3958ZM66.3032 25.5333C64.3185 25.5333 63.1042 23.9908 63.1042 22.185C63.1042 20.3793 64.3276 18.8367 66.3032 18.8367C68.2879 18.8367 69.5023 20.3793 69.5023 22.185C69.5113 23.9998 68.2879 25.5333 66.3032 25.5333Z" fill="white"/>
<path d="M110.628 16.3958C107.347 16.3958 104.737 18.9365 104.737 22.1941C104.737 25.4245 107.347 27.9924 110.628 27.9924C113.909 27.9924 116.519 25.4335 116.519 22.1941C116.519 18.9274 113.909 16.3958 110.628 16.3958ZM110.628 25.5333C108.643 25.5333 107.429 23.9908 107.429 22.185C107.429 20.3793 108.652 18.8367 110.628 18.8367C112.613 18.8367 113.827 20.3793 113.827 22.185C113.827 23.9998 112.613 25.5333 110.628 25.5333Z" fill="white"/>
<path d="M123.995 16.3958C120.714 16.3958 118.104 18.9365 118.104 22.1941C118.104 25.4245 120.714 27.9924 123.995 27.9924C127.276 27.9924 129.886 25.4335 129.886 22.1941C129.886 18.9274 127.285 16.3958 123.995 16.3958ZM123.995 25.5333C122.01 25.5333 120.796 23.9908 120.796 22.185C120.796 20.3793 122.019 18.8367 123.995 18.8367C125.98 18.8367 127.194 20.3793 127.194 22.185C127.203 23.9998 125.98 25.5333 123.995 25.5333Z" fill="white"/>
<path d="M84.8905 16.6406C82.5614 16.6406 81.5827 18.528 81.5827 18.528V16.9219H78.9727V27.956H81.7639V20.6695C81.7639 20.6695 82.507 19.254 83.957 19.254C85.1714 19.254 86.1502 19.9254 86.1502 21.5134V27.956H88.9414V20.8147C88.9414 18.156 87.0383 16.6406 84.8905 16.6406Z" fill="white"/>
<path d="M91.778 11.5229V14.1998H99.5808L90.9805 27.947H103.876V25.2702H95.7927L104.348 11.5229H91.778Z" fill="white"/>
<path d="M144.468 16.6406C141.885 16.6406 140.951 18.5734 140.951 18.5734C140.951 18.5734 140.181 16.6406 137.526 16.6406C135.269 16.6406 134.263 18.528 134.263 18.528V16.9219H131.653V27.956H134.445V20.6695C134.445 20.6695 135.142 19.254 136.611 19.254C138.006 19.254 138.586 20.0706 138.586 21.5769V27.956H141.377V20.6695C141.377 20.6695 142.075 19.254 143.543 19.254C144.939 19.254 145.519 20.0706 145.519 21.5769V27.956H148.31V20.8601C148.328 18.2014 146.697 16.6406 144.468 16.6406Z" fill="white"/>
<path d="M149.633 16.2414H149.47V16.7677H149.244V15.4338H149.751C150.005 15.4338 150.168 15.6153 150.168 15.8422C150.168 16.0327 150.05 16.1779 149.869 16.2233L150.168 16.7768H149.914L149.633 16.2414ZM149.715 16.0418C149.851 16.0418 149.941 15.9601 149.941 15.8422C149.941 15.7151 149.851 15.6335 149.715 15.6335H149.47V16.0418H149.715Z" fill="white"/>
<path d="M149.669 17.4484C148.926 17.4484 148.328 16.8495 148.328 16.1054C148.328 15.3613 148.926 14.7625 149.669 14.7625C150.413 14.7625 151.011 15.3613 151.011 16.1054C151.011 16.8495 150.413 17.4484 149.669 17.4484ZM149.669 14.9349C149.026 14.9349 148.5 15.4612 148.5 16.1054C148.5 16.7497 149.026 17.276 149.669 17.276C150.313 17.276 150.838 16.7497 150.838 16.1054C150.838 15.4612 150.313 14.9349 149.669 14.9349Z" fill="white"/>
<path fill-rule="evenodd" clip-rule="evenodd" d="M50.0816 13.1562C51.3775 12.8024 52.755 12.8931 53.9966 13.4194C55.2381 13.9457 56.2803 14.8712 56.9509 16.0509L59.1894 14.7442C58.2378 13.0655 56.7606 11.7498 54.9934 11.0057C53.2263 10.2616 51.2688 10.1346 49.42 10.6337C47.5713 11.1327 45.94 12.2488 44.7709 13.7824C43.6109 15.325 42.9766 17.2124 42.9766 19.1542C42.9766 21.0961 43.6109 22.9835 44.7709 24.5261C45.9309 26.0687 47.5713 27.1757 49.42 27.6748C51.2688 28.1738 53.2263 28.0468 54.9934 27.3027C56.7606 26.5587 58.2378 25.2429 59.1894 23.5642L56.9509 22.2666C56.2803 23.4462 55.2381 24.3718 53.9966 24.8981C52.755 25.4244 51.3775 25.5151 50.0816 25.1613C48.7856 24.8074 47.6347 24.027 46.8191 22.9472C46.0034 21.8583 45.5594 20.5335 45.5594 19.1633C45.5594 17.7931 46.0034 16.4683 46.8191 15.3794C47.6347 14.2905 48.7856 13.5101 50.0816 13.1562Z" fill="white"/>
<path d="M9.15506 8.55571V7.78441H9.16412L29.6001 11.9857V14.9348L14.7919 23.9907L26.5007 26.2502V21.1505H38.1007C38.1822 20.4427 38.2276 19.7259 38.2276 19C38.2276 8.70997 29.8901 0.361816 19.6132 0.361816C11.0582 0.361816 3.8535 6.142 1.66943 14.0092H9.16412V8.55571H9.15506Z" fill="#71B73B"/>
<path d="M29.9626 30.6148L26.7816 29.9615L26.6819 29.9433L9.52662 26.4226V23.2104L23.8454 14.472L12.5082 12.2217V17.3667H1.06225C1.01693 17.902 0.989746 18.4465 0.989746 19C0.989746 29.29 9.32725 37.6381 19.6041 37.6381C27.9688 37.6381 35.0466 32.112 37.3938 24.508H29.9626V30.6148Z" fill="#71B73B"/>
<path d="M26.5007 21.1505V26.2502L14.792 23.9907L29.6001 14.9348V11.9857L9.16416 7.78442H9.1551V8.55572V14.0092H1.66041C1.36135 15.0891 1.15291 16.2142 1.05322 17.3666H12.5082V12.2216L23.8454 14.472L9.52666 23.2104V26.4226L26.682 29.9433L26.7817 29.9615L29.9626 30.6148V24.5079H37.3939C37.7292 23.4281 37.9648 22.3029 38.1007 21.1505H26.5007Z" fill="black"/>
</svg>
