<svg width="252" height="82" viewBox="0 0 252 82" fill="none" xmlns="http://www.w3.org/2000/svg">
<g clip-path="url(#clip0_19700_11148)">
<path d="M51.0468 44.2754L49.1421 36.708C49.0875 36.4855 48.9116 36.3124 48.6932 36.2567L41.3354 34.4082C41.2808 34.3958 41.2201 34.3896 41.1655 34.3896C40.9896 34.3711 40.8076 34.4267 40.6742 34.5627L28.2574 47.2183L26.6136 40.6772C26.559 40.4546 26.3831 40.2815 26.1647 40.2259L19.8441 38.637L32.2548 25.9876C32.3276 25.9134 32.3701 25.8207 32.4004 25.7279C32.455 25.6043 32.4732 25.4621 32.4368 25.3261L30.5321 17.7587C30.4775 17.5362 30.3016 17.363 30.0832 17.3074L22.7254 15.4588C22.5798 15.4217 22.4342 15.4465 22.3069 15.5083H22.3008C22.2644 15.5268 22.2341 15.5516 22.1977 15.5763C22.1673 15.601 22.1249 15.6134 22.1006 15.6443L0.918732 37.2212C0.918732 37.2212 0.882338 37.283 0.858075 37.3139C0.724626 37.4747 0.676099 37.6849 0.736757 37.8889L2.79307 45.2028C2.85373 45.413 3.01144 45.5737 3.21162 45.6294L10.1024 47.6449L12.0799 54.662C12.1405 54.8722 12.2982 55.0329 12.4984 55.0886L19.4134 57.1102L21.397 64.1583C21.4576 64.3685 21.6153 64.5292 21.8155 64.5849L29.0217 66.6931C29.0763 66.7116 29.137 66.7178 29.1916 66.7178C29.2037 66.7178 29.2158 66.7116 29.234 66.7116C29.234 66.7116 29.2401 66.7116 29.2462 66.7116C29.4039 66.7116 29.5616 66.6498 29.6829 66.5262L50.8708 44.9307C50.9436 44.8566 50.9861 44.7638 51.0164 44.6711C51.071 44.5474 51.0892 44.4052 51.0528 44.2692L51.0468 44.2754ZM41.5477 52.665L40.0009 46.5135L43.4281 43.0265L49.318 44.7515L41.5537 52.6712L41.5477 52.665ZM29.5313 64.9125L27.9845 58.761L34.1837 52.4425L40.0737 54.1674L29.5313 64.9125ZM34.3111 50.5444L32.8311 45.2893L38.1508 46.6247L34.3111 50.5383V50.5444ZM38.9939 47.5398L40.3527 52.9371L35.1785 51.4224L38.9939 47.5336V47.5398ZM39.1699 45.5923L33.1404 44.0776L40.8865 36.1825L42.5607 42.1363L39.1699 45.5923ZM31.6422 45.5985L33.3163 51.5522L27.1474 57.8398L21.1179 56.3251L31.6422 45.5985ZM48.0442 37.3696L49.591 43.5211L43.7435 41.8086L42.0693 35.8672L48.0442 37.3696ZM20.2081 55.4101L18.6613 49.2585L20.8935 46.9833L26.7834 48.7082L20.2081 55.4101ZM21.0209 45.0853L19.5408 39.8302L24.8606 41.1656L21.0209 45.0791V45.0853ZM27.0625 47.4841L21.8883 45.9694L25.7037 42.0806L27.0625 47.4779V47.4841ZM20.0322 46.0992L17.8303 48.3435L11.8008 46.8288L18.358 40.1455L20.0322 46.0992ZM13.0929 26.5811L14.767 32.5349L8.54348 38.8781L2.51405 37.3634L13.0929 26.5811ZM22.2826 17.2147L23.9568 23.1684L20.6206 26.5688L14.5911 25.0541L22.2826 17.2147ZM22.9984 33.6415L21.4516 27.4961L24.8242 24.0587L30.7141 25.7774L22.9984 33.6415ZM15.7618 31.5271L14.2818 26.272L19.6015 27.6074L15.7618 31.5209V31.5271ZM20.4446 28.5224L21.8034 33.9197L16.6353 32.405L20.4507 28.5162L20.4446 28.5224ZM15.6405 33.419L21.5304 35.1377L10.9334 45.9385L9.38663 39.7931L15.6405 33.419ZM29.4403 18.4141L30.9871 24.5656L25.1396 22.8531L23.4654 16.9117L29.4403 18.4141ZM2.21075 38.5813L7.53049 39.9167L3.69082 43.8303L2.21075 38.5751V38.5813ZM4.55823 44.7205L8.37364 40.8318L9.73238 46.2291L4.5643 44.7144L4.55823 44.7205ZM13.1656 53.9881L11.4915 48.0467L17.4663 49.5491L19.0131 55.7006L13.1656 53.9881ZM20.8147 57.543L26.1344 58.8784L22.2947 62.7919L20.8147 57.5368V57.543ZM23.1621 63.6822L26.9775 59.7934L28.3363 65.1907L23.1621 63.676V63.6822Z" fill="white"/>
</g>
<path d="M69.8487 52.2513C67.8641 52.2513 66.1392 51.8556 64.6554 51.0643C63.1778 50.2729 62.0279 49.1972 61.2179 47.8247C60.4019 46.4583 60 44.8818 60 43.1013C60 41.3207 60.3957 39.7442 61.187 38.3778C61.9784 37.0115 63.0665 35.9296 64.4576 35.1382C65.8486 34.3469 67.4313 33.9512 69.2181 33.9512C71.0048 33.9512 72.501 34.3345 73.8611 35.1011C75.2213 35.8677 76.2847 36.9435 77.0636 38.3222C77.8426 39.7009 78.2321 41.3392 78.2321 43.2311C78.2321 43.3856 78.2321 43.5835 78.2136 43.8184C78.2012 44.0534 78.1889 44.2574 78.1641 44.4367H63.3076V41.6669H75.9632L74.2939 42.5325C74.3186 41.5309 74.1084 40.6344 73.6756 39.8431C73.2429 39.0517 72.6432 38.4397 71.8889 38.0069C71.1346 37.5741 70.2382 37.3577 69.2181 37.3577C68.198 37.3577 67.3201 37.5741 66.5287 38.0069C65.7373 38.4397 65.1315 39.0579 64.711 39.8616C64.2906 40.6654 64.0743 41.5865 64.0743 42.6314V43.2991C64.0743 44.3687 64.3154 45.3146 64.7914 46.1369C65.2675 46.9591 65.9537 47.6021 66.844 48.0534C67.7343 48.5109 68.7668 48.7397 69.9476 48.7397C70.9492 48.7397 71.8518 48.5728 72.6494 48.2389C73.4531 47.905 74.1641 47.4166 74.7885 46.7675L77.0575 49.3703C76.2352 50.3038 75.2151 51.021 74.0033 51.5094C72.7916 51.9978 71.4067 52.2451 69.8487 52.2451V52.2513Z" fill="white"/>
<path d="M78.1953 37.6628V34.3243H90.078V37.6628H78.1953ZM87.2774 52.2535C85.3175 52.2535 83.8028 51.7465 82.7394 50.7326C81.6699 49.7186 81.1382 48.2348 81.1382 46.275V30.25H85.2804V46.139C85.2804 46.986 85.503 47.6413 85.9481 48.1112C86.3933 48.5811 87.0177 48.8098 87.8153 48.8098C88.7303 48.8098 89.4845 48.5625 90.0842 48.0741L91.2836 51.0479C90.7705 51.4497 90.1584 51.7465 89.4474 51.9505C88.7364 52.1484 88.0131 52.2535 87.2774 52.2535Z" fill="white"/>
<path d="M102.834 33.9583C104.28 33.9583 105.554 34.2365 106.654 34.793C107.755 35.3494 108.633 36.2087 109.294 37.3649C109.95 38.521 110.277 40.0048 110.277 41.8039V52.0174H106.104V42.3356C106.104 40.7529 105.739 39.5782 105.004 38.7992C104.268 38.0202 103.223 37.6307 101.863 37.6307C100.886 37.6307 100.014 37.8286 99.2602 38.2304C98.5059 38.6323 97.9186 39.2258 97.5105 40.0172C97.0963 40.8085 96.8923 41.8039 96.8923 43.0033V52.0174H92.75V27.2441H96.8923V39.028L96.0267 37.5256C96.6264 36.388 97.5229 35.5101 98.7161 34.8857C99.9093 34.2613 101.282 33.9521 102.84 33.9521L102.834 33.9583Z" fill="white"/>
<path d="M121.634 52.2533C119.649 52.2533 117.924 51.8576 116.441 51.0662C114.963 50.2749 113.813 49.1991 113.003 47.8266C112.187 46.4603 111.785 44.8838 111.785 43.1032C111.785 41.3226 112.181 39.7461 112.972 38.3798C113.764 37.0135 114.852 35.9315 116.243 35.1402C117.634 34.3488 119.216 33.9531 121.003 33.9531C122.79 33.9531 124.286 34.3364 125.646 35.1031C127.006 35.8697 128.07 36.9454 128.849 38.3241C129.628 39.7028 130.017 41.3412 130.017 43.233C130.017 43.3876 130.017 43.5854 129.999 43.8204C129.986 44.0553 129.974 44.2593 129.949 44.4386H115.093V41.6689H127.748L126.079 42.5344C126.104 41.5329 125.894 40.6364 125.461 39.845C125.028 39.0537 124.428 38.4416 123.674 38.0088C122.92 37.5761 122.023 37.3597 121.003 37.3597C119.983 37.3597 119.105 37.5761 118.314 38.0088C117.522 38.4416 116.917 39.0599 116.496 39.8636C116.076 40.6673 115.859 41.5885 115.859 42.6333V43.301C115.859 44.3706 116.101 45.3165 116.577 46.1388C117.053 46.9611 117.739 47.6041 118.629 48.0554C119.519 48.5129 120.552 48.7416 121.733 48.7416C122.734 48.7416 123.637 48.5747 124.435 48.2409C125.238 47.907 125.949 47.4186 126.574 46.7694L128.843 49.3722C128.02 50.3058 127 51.023 125.788 51.5114C124.577 51.9998 123.192 52.2471 121.634 52.2471V52.2533Z" fill="white"/>
<path d="M131.877 52.0161V34.1858H135.853V39.0947L135.383 37.6603C135.896 36.4609 136.731 35.5397 137.887 34.9091C139.043 34.2723 140.459 33.957 142.128 33.957V37.9324C141.973 37.9076 141.819 37.8953 141.658 37.8829C141.503 37.8705 141.355 37.8644 141.225 37.8644C139.624 37.8644 138.357 38.3219 137.417 39.2307C136.483 40.1457 136.013 41.5368 136.013 43.4039V52.0161H131.871H131.877Z" fill="white"/>
<path d="M149.973 37.6616V34.323H161.855V37.6616H149.973ZM152.909 52.0173V33.2225C152.909 31.3307 153.46 29.8222 154.56 28.697C155.661 27.5717 157.237 27.0091 159.283 27.0091C160.019 27.0091 160.712 27.0895 161.373 27.2441C162.028 27.3986 162.579 27.6459 163.024 27.9798L161.855 31.0834C161.565 30.8856 161.219 30.7186 160.823 30.5826C160.421 30.4466 160.013 30.3848 159.586 30.3848C158.721 30.3848 158.059 30.6259 157.614 31.1019C157.169 31.578 156.946 32.289 156.946 33.2225V35.2937L157.045 37.1299V52.0173H152.903H152.909ZM166.9 31.2503C166.121 31.2503 165.484 31.003 164.984 30.5146C164.483 30.0262 164.236 29.4265 164.236 28.7093C164.236 28.0416 164.483 27.4605 164.984 26.972C165.484 26.4836 166.121 26.2363 166.9 26.2363C167.679 26.2363 168.316 26.4651 168.823 26.9226C169.324 27.3801 169.571 27.9612 169.571 28.6722C169.571 29.3832 169.324 29.9891 168.835 30.4899C168.347 30.9907 167.698 31.2441 166.9 31.2441V31.2503ZM164.829 52.0173V34.187H168.971V52.0173H164.829Z" fill="white"/>
<path d="M147.088 51.3299L145.431 48.591C145.308 48.3932 145.091 48.2695 144.863 48.2695H144.85C144.615 48.2695 144.393 48.4055 144.275 48.6157L142.736 51.3979C142.526 51.7812 142.526 52.2449 142.736 52.6282L144.281 55.4165C144.399 55.6267 144.615 55.7565 144.856 55.7627H144.863C145.097 55.7627 145.32 55.6391 145.438 55.435L147.088 52.6405C147.329 52.2387 147.323 51.7379 147.088 51.336V51.3299Z" fill="white"/>
<defs>
<clipPath id="clip0_19700_11148">
<rect width="52" height="52" fill="white" transform="translate(0 15)"/>
</clipPath>
</defs>
</svg>
