<svg width="429" height="400" viewBox="0 0 429 400" fill="none" xmlns="http://www.w3.org/2000/svg">
<g clip-path="url(#clip0_5_204)">
<path d="M172.629 123.288L245.86 196.463L291.977 150.381C300.128 142.193 313.342 142.193 321.535 150.338C329.729 158.483 329.729 171.686 321.578 179.874L260.617 240.789C252.381 248.848 239.21 248.848 231.016 240.789L143.114 152.953V205.123C143.114 216.654 133.762 225.999 122.222 225.999C110.682 225.999 101.33 216.654 101.33 205.123V41.5818C101.33 30.0504 110.682 20.7052 122.222 20.7052C133.762 20.7052 143.114 30.0504 143.114 41.5818V93.8807L231.016 6.04437C239.253 -2.01479 252.424 -2.01479 260.617 6.04437L321.578 66.9596C329.729 75.1474 329.686 88.3507 321.535 96.4956C313.342 104.64 300.128 104.598 291.977 96.4527L245.86 50.3698L172.629 123.417V123.288ZM245.817 102.411C234.234 102.368 224.753 111.714 224.71 123.288C224.667 134.862 234.019 144.336 245.602 144.379C257.185 144.422 266.666 135.077 266.709 123.502C266.709 123.417 266.709 123.331 266.709 123.288C266.666 111.799 257.314 102.497 245.817 102.411Z" fill="white"/>
<path d="M300.772 358.847C300.772 355.289 300.772 352.031 300.643 348.988C300.514 345.987 300.257 343.072 299.828 340.585C299.442 337.971 298.627 335.613 297.426 333.255C296.353 330.897 294.594 328.797 292.578 326.696C289.618 323.824 286.4 321.724 282.797 320.138C279.15 318.68 274.989 317.78 270.313 317.78C265.637 317.78 261.433 318.551 257.829 320.138C254.183 321.595 250.836 323.824 247.876 326.696C245.731 328.797 244.23 330.897 243.157 333.255C242.085 335.613 241.141 337.971 240.755 340.585C240.369 343.2 240.068 345.987 239.94 348.988C239.811 351.988 239.811 355.289 239.811 358.847C239.811 362.405 239.811 365.535 239.94 368.707C240.068 371.708 240.326 374.623 240.755 377.109C241.141 379.724 241.956 382.082 243.157 384.439C244.23 386.797 245.989 388.898 247.876 390.998C250.836 393.87 254.054 395.971 257.829 397.557C261.476 399.014 265.637 399.915 270.313 399.915C274.989 399.915 279.022 399.143 282.797 397.557C286.443 396.099 289.79 393.87 292.578 390.998C294.723 388.898 296.224 386.797 297.426 384.439C298.498 382.082 299.442 379.724 299.828 377.109C300.214 374.494 300.643 371.708 300.643 368.707C300.772 365.406 300.772 362.405 300.772 358.847ZM284.77 358.847C284.77 362.662 284.77 365.92 284.642 368.578C284.513 371.193 284.384 373.165 283.955 374.88C283.698 376.466 283.269 377.881 282.754 378.824C282.196 379.852 281.681 380.924 280.738 381.696C279.665 383.025 278.035 384.053 276.448 384.825C274.689 385.597 272.672 385.854 270.399 386.025C268.125 386.025 266.237 385.64 264.35 384.825C262.591 384.053 261.132 383.11 259.931 381.696C259.116 380.924 258.601 379.981 257.915 378.824C257.357 377.752 256.971 376.466 256.714 374.88C256.456 373.294 256.156 371.193 256.156 368.578C256.027 365.963 256.027 362.791 256.027 358.847C256.027 354.903 256.027 351.774 256.156 349.116C256.285 346.501 256.413 344.529 256.714 342.815C256.971 341.1 257.4 339.814 257.915 338.871C258.472 337.842 258.987 336.77 259.931 335.999C261.004 334.67 262.634 333.641 264.35 332.869C266.109 332.098 268.125 331.84 270.399 331.669C272.672 331.669 274.56 332.055 276.448 332.869C278.078 333.641 279.665 334.584 280.738 335.999C281.553 336.77 282.068 337.713 282.754 338.871C283.312 339.9 283.698 341.228 283.955 342.815C284.212 344.401 284.513 346.501 284.642 349.116C284.642 351.731 284.77 355.032 284.77 358.847Z" fill="white"/>
<path d="M429 319.152C429 318.337 428.314 317.823 427.67 317.823H414.5C413.685 317.823 413.17 318.509 413.17 319.152V365.878C413.17 366.564 412.269 366.864 411.883 366.263L380.823 318.209C380.566 317.951 380.437 317.823 380.008 317.823H367.653C366.924 317.823 366.323 318.423 366.323 319.152V398.586C366.323 399.4 367.01 399.915 367.653 399.915H380.823C381.638 399.915 382.153 399.229 382.153 398.586V351.731C382.153 351.045 383.054 350.745 383.44 351.345L414.5 399.529C414.757 399.786 414.886 399.915 415.315 399.915H427.67C428.485 399.915 429 399.229 429 398.586V319.152Z" fill="white"/>
<path d="M339.982 319.152C339.982 318.337 339.296 317.823 338.652 317.823H325.482C324.667 317.823 324.152 318.509 324.152 319.152V398.586C324.152 399.4 324.839 399.915 325.482 399.915H338.652C339.468 399.915 339.982 399.229 339.982 398.586V319.152Z" fill="white"/>
<path d="M180.738 358.461C180.738 354.56 180.738 352.288 180.866 349.631C180.995 346.93 181.124 344.915 181.424 343.2C182.625 336.084 188.116 331.926 195.109 331.926C202.102 331.926 203.689 333.555 206.392 337.413C207.464 339.042 208.408 341.057 208.923 343.329C208.923 343.586 209.052 343.715 209.309 343.715H224.882C225.139 343.715 225.139 343.586 225.139 343.329C223.509 333.812 218.275 324.939 209.18 320.652C205.019 318.637 200.171 317.565 194.809 317.565C186.1 317.565 178.55 320.652 172.501 326.568C169.026 330.04 166.881 334.198 165.808 338.914C164.865 343.458 164.479 349.245 164.479 358.247C164.479 367.249 164.865 374.065 165.808 378.652C166.752 383.368 169.155 387.526 172.501 390.998C178.55 397.042 185.929 400 194.809 400C203.689 400 204.89 399.057 209.18 396.914C218.189 392.627 223.552 384.053 225.139 374.237C225.139 373.98 225.139 373.851 224.882 373.851H209.309C209.052 373.851 208.923 373.98 208.923 374.237C208.365 376.509 207.593 378.395 206.392 380.153C203.689 383.925 199.699 385.511 195.109 385.64C188.116 385.64 182.754 381.481 181.424 374.365C181.167 372.736 180.866 370.593 180.866 367.935C180.738 365.792 180.738 362.448 180.738 358.547V358.461Z" fill="white"/>
<path d="M15.8301 319.023C15.8301 318.209 15.1436 317.694 14.5001 317.694H1.32984C0.514737 317.694 0 318.38 0 319.023V398.457C0 399.272 0.686337 399.786 1.32984 399.786H14.5001C15.3152 399.786 15.8301 399.1 15.8301 398.457V375.351C15.8301 375.18 15.8729 375.008 16.0016 374.88L25.9545 363.091C26.2548 362.705 26.8554 362.791 27.1128 363.177L48.477 399.486C48.6057 399.743 48.8631 399.872 49.2921 399.872H65.4225C66.1089 399.872 66.2375 399.486 65.9801 398.8L37.6233 350.788C37.4517 350.531 37.4946 350.231 37.7091 349.974L63.7065 318.809C64.2642 318.123 63.9638 317.608 63.1487 317.608H45.4311C45.1737 317.608 44.7018 317.908 44.5731 318.209L17.1171 350.874C16.6881 351.388 15.873 351.088 15.873 350.402V318.937L15.8301 319.023Z" fill="white"/>
<path d="M112.527 385.425C105.019 385.425 98.2839 378.438 98.2839 370.25V319.28C98.2839 318.466 97.5974 317.951 96.9539 317.951H83.7836C82.9685 317.951 82.4536 318.637 82.4536 319.28V370.121C82.4536 388.383 96.1388 399.915 112.784 399.915C129.429 399.915 143.114 388.383 143.114 370.121V319.28C143.114 318.466 142.428 317.951 141.784 317.951H128.614C127.799 317.951 127.284 318.637 127.284 319.28V370.25C126.598 378.438 119.905 385.425 112.527 385.425Z" fill="white"/>
</g>
<defs>
<clipPath id="clip0_5_204">
<rect width="429" height="400" fill="white"/>
</clipPath>
</defs>
</svg>
