<?xml version="1.0" encoding="UTF-8"?>
<svg xmlns="http://www.w3.org/2000/svg" version="1.1" viewBox="0 0 2500 2500" width="200" height="200">
<g>
	<path d="M2459.7,1566.6l-540.6-937.7c-118.5-195.5-407.5-197.5-521.9,8.3l-567.6,975.2c-106,178.8,25,403.3,237.1,403.3H2204C2418.1,2015.7,2578.2,1784.9,2459.7,1566.6z" fill="white" opacity="0.7"/>
	<path d="M1680,1639.4l-33.3-58.2c-31.2-54.1-99.8-170.5-99.8-170.5l-457.4-794.3C971,439.7,690.3,425.1,571.8,647.6L39.5,1568.7c-110.2,193.4,20.8,444.9,259.9,447h1131.1h482.4h286.9C1906.7,2017.8,1813.1,1866,1680,1639.4L1680,1639.4z" fill="white"/>
</g>
</svg>
