<svg width="367" height="67" viewBox="0 0 367 67" fill="none" xmlns="http://www.w3.org/2000/svg">
<path d="M31.7153 67C12.1982 67 0 52.7906 0 33.455C0 14.1195 12.1982 0 31.7153 0C51.142 0 63.4306 14.1195 63.4306 33.455C63.4306 52.7906 51.142 67 31.7153 67ZM31.7153 57.8268C46.5338 57.8268 52.6781 46.4953 52.6781 33.455C52.6781 20.5047 46.5338 9.17315 31.7153 9.17315C16.8968 9.17315 10.6621 20.5047 10.6621 33.455C10.6621 46.4953 16.8968 57.8268 31.7153 57.8268Z" fill="white"/>
<path d="M90.0435 9.08322C83.8993 8.81342 81.55 9.44295 81.55 14.6591V19.6953H90.0435V27.4295H81.55V65.651H71.9721V27.4295H65.3761V19.6953H71.9721V13.8497C71.9721 4.13691 76.1286 0.719459 83.7185 0.719459C86.0678 0.719459 88.146 0.98926 90.0435 1.34899V9.08322Z" fill="white"/>
<path d="M114.687 9.08322C108.543 8.81342 106.193 9.44295 106.193 14.6591V19.6953H114.687V27.4295H106.193V65.651H96.6156V27.4295H90.0195V19.6953H96.6156V13.8497C96.6156 4.13691 100.772 0.719459 108.362 0.719459C110.711 0.719459 112.789 0.98926 114.687 1.34899V9.08322Z" fill="white"/>
<path d="M164.607 32.0314L141.856 54.6021H125.564L148.315 32.0314L125.493 9.39044L125.505 9.37872H141.773L164.607 32.0314Z" fill="white"/>
<path d="M200.618 32.0314L177.867 54.6021H161.575L184.326 32.0314L161.504 9.39044L161.516 9.37872H177.785L200.618 32.0314Z" fill="white"/>
<path d="M260.163 21.404C258.537 13.7597 252.574 9.17315 242.996 9.17315C229.171 9.17315 223.479 21.404 223.479 33.455C223.479 45.596 227.906 57.8268 242.634 57.8268C252.845 57.8268 260.977 50.8121 261.067 40.5597H242.815V31.9262H272V65.651H264.591L262.242 56.8376H262.061C257.724 63.3128 251.67 67 241.911 67C223.207 67 212.726 52.8805 212.726 33.455C212.726 14.1195 224.472 0 243.086 0C259.892 0 268.928 9.08322 270.916 21.404H260.163Z" fill="white"/>
<path d="M300.48 18.6161C302.106 18.6161 303.281 18.706 304.636 18.8859V27.7893H304.455C295.329 26.2604 288.01 32.3758 288.01 42.1785V65.651H278.523V19.6953H288.01V28.3289H288.191C290.631 22.5732 294.426 18.6161 300.48 18.6161Z" fill="white"/>
<path d="M313.351 11.9611C310.73 11.9611 308.02 10.1624 308.02 6.92483C308.02 3.68725 310.73 1.97852 313.351 1.97852C316.152 1.97852 318.772 3.68725 318.772 6.92483C318.772 10.1624 316.152 11.9611 313.351 11.9611ZM308.652 19.6953H318.139V65.651H308.652V19.6953Z" fill="white"/>
<path d="M357.513 1.34899H367V65.651H357.513V60.345H357.332C354.892 63.4926 350.374 67 343.236 67C331.399 67 322.635 57.8268 322.635 42.7181C322.635 27.6094 331.399 18.4362 343.236 18.4362C350.374 18.4362 354.892 21.7638 357.332 25.2711H357.513V1.34899ZM344.863 59.2658C352.633 59.2658 357.422 52.8805 357.422 42.7181C357.422 32.4658 352.633 26.1705 344.863 26.1705C336.55 26.1705 332.122 33.7248 332.122 42.7181C332.122 51.7114 336.55 59.2658 344.863 59.2658Z" fill="white"/>
</svg>
