<?xml version="1.0" encoding="utf-8"?>
<svg xmlns="http://www.w3.org/2000/svg" fill="none" height="31" viewBox="0 0 30 31" width="30">
<path d="M14.9946 12.0645C13.1015 12.0645 11.5664 13.5996 11.5664 15.4927V18.9209H14.9946C16.8878 18.9209 18.4229 17.3858 18.4229 15.4927C18.4229 13.5996 16.8878 12.0645 14.9946 12.0645Z" fill="white"/>
<path d="M14.993 0.5C6.71426 0.5 0 7.21426 0 15.493V30.4861H6.85647V15.493C6.85647 11.0005 10.5005 7.35649 14.993 7.35649C19.4856 7.35649 23.1296 11.0005 23.1296 15.493C23.1296 19.9856 19.4856 23.6296 14.993 23.6296H11.5648V30.4861H14.993C23.2718 30.4861 29.9861 23.7718 29.9861 15.493C29.9861 7.21426 23.2718 0.5 14.993 0.5Z" fill="white"/>
</svg>
