<svg width="176" height="44" viewBox="0 0 176 44" fill="none" xmlns="http://www.w3.org/2000/svg">
<g clip-path="url(#clip0_8768_5584)">
<mask id="mask0_8768_5584" style="mask-type:luminance" maskUnits="userSpaceOnUse" x="0" y="0" width="176" height="44">
<path d="M176 0H0V44H176V0Z" fill="white"/>
</mask>
<g mask="url(#mask0_8768_5584)">
<path d="M79.2044 25.3751H76.3268V31.6803H71.83V12.3203H80.3132C81.2683 12.31 82.2176 12.4709 83.116 12.7955C83.9273 13.09 84.6743 13.5381 85.316 14.1155C85.9424 14.6929 86.4376 15.3982 86.768 16.1835C87.1233 17.027 87.3001 17.9348 87.2872 18.8499C87.292 19.5025 87.2062 20.1526 87.032 20.7815C86.8721 21.3669 86.6275 21.9257 86.306 22.4403C85.9962 22.9363 85.6119 23.3816 85.1664 23.7603C84.7137 24.1433 84.2121 24.4644 83.6748 24.7151L87.758 31.6803H82.5748L79.2044 25.3751ZM80.1152 21.5031C80.4705 21.5052 80.8229 21.4395 81.1536 21.3095C81.4665 21.1874 81.7532 21.0068 81.9984 20.7771C82.2442 20.544 82.439 20.2623 82.5704 19.9499C82.8461 19.2577 82.8461 18.4861 82.5704 17.7939C82.4382 17.4756 82.2438 17.1868 81.9984 16.9447C81.7533 16.7095 81.4668 16.5215 81.1536 16.3903C80.8238 16.2569 80.4709 16.1895 80.1152 16.1923H76.3268V21.5031H80.1152Z" fill="#FEFEFE"/>
<path d="M124.783 24.2447C124.497 23.2549 123.883 22.3915 123.043 21.7964C122.609 21.4876 122.146 21.2219 121.661 21.0031C121.123 20.7618 120.571 20.558 120.006 20.3932C119.422 20.2226 118.79 20.0561 118.133 19.8984C117.575 19.796 117.041 19.6893 116.559 19.5699C116.131 19.4688 115.713 19.326 115.314 19.1434C115.005 19.0046 114.727 18.8061 114.495 18.559C114.305 18.3454 114.203 18.0682 114.209 17.7828C114.208 17.5634 114.249 17.346 114.333 17.1429C114.423 16.9225 114.571 16.7298 114.76 16.5841C115.015 16.3979 115.305 16.2632 115.612 16.1874C116.081 16.0799 116.56 16.0311 117.041 16.0425C117.486 16.0302 117.929 16.0893 118.355 16.2174C118.666 16.3138 118.955 16.4687 119.208 16.6737C119.417 16.8483 119.578 17.0727 119.677 17.3263C119.772 17.5724 119.822 17.8342 119.822 18.0984H124.365C124.375 17.2529 124.219 16.4137 123.904 15.6287C123.606 14.9024 123.145 14.2544 122.557 13.7349C121.921 13.1892 121.18 12.7784 120.381 12.5277C119.427 12.2304 118.433 12.0865 117.434 12.1013C116.261 12.0855 115.092 12.229 113.958 12.5277C113.073 12.7582 112.247 13.1724 111.535 13.7433C110.906 14.2594 110.418 14.9253 110.114 15.6799C109.798 16.4955 109.642 17.3644 109.654 18.2392C109.638 18.775 109.733 19.3082 109.933 19.8058C110.132 20.3033 110.432 20.7544 110.814 21.1311C111.169 21.4692 111.57 21.7563 112.004 21.9841C112.438 22.2175 112.889 22.4186 113.352 22.5856C113.798 22.7519 114.255 22.8942 114.717 23.0121L115.903 23.3149C116.644 23.5239 117.271 23.6945 117.818 23.8353C118.306 23.9567 118.782 24.1209 119.242 24.3258C119.591 24.4704 119.9 24.6973 120.142 24.987C120.353 25.2903 120.458 25.6545 120.441 26.0234C120.445 26.307 120.382 26.5874 120.258 26.8424C120.121 27.0912 119.923 27.3 119.681 27.448C119.358 27.6376 119.005 27.7702 118.636 27.8405C118.114 27.9441 117.582 27.9927 117.05 27.9855C116.124 28.0416 115.203 27.806 114.418 27.3116C114.126 27.1173 113.887 26.8524 113.725 26.5414C113.563 26.2305 113.482 25.8837 113.488 25.5329H108.992C108.992 26.3161 109.137 27.0927 109.419 27.8235C109.727 28.5991 110.204 29.2968 110.814 29.8666C111.529 30.5186 112.369 31.0179 113.284 31.3339C114.463 31.7369 115.706 31.9276 116.952 31.8969C118.031 31.9063 119.107 31.7803 120.155 31.5215C121.068 31.3058 121.935 30.9273 122.714 30.4039C123.419 29.9313 124.003 29.3002 124.42 28.5613C124.828 27.7806 125.029 26.9083 125.005 26.0277C125.018 25.4257 124.944 24.825 124.783 24.2447Z" fill="#FEFEFE"/>
<path d="M106.335 12.3198V23.7598C106.336 24.9938 106.049 26.211 105.495 27.3137C104.941 28.4163 104.136 29.3737 103.145 30.109C102.7 30.4432 102.221 30.7279 101.715 30.9582C100.679 31.4328 99.5537 31.6785 98.4148 31.6785C97.2757 31.6785 96.1502 31.4328 95.1148 30.9582C94.6086 30.7279 94.1292 30.4432 93.6848 30.109C92.6938 29.3737 91.8889 28.4163 91.3349 27.3137C90.781 26.211 90.4931 24.9938 90.4948 23.7598V12.3198H95.1148V24.4198C95.1148 25.295 95.4624 26.1344 96.0813 26.7533C96.7002 27.3721 97.5395 27.7198 98.4148 27.7198C99.2899 27.7198 100.129 27.3721 100.748 26.7533C101.367 26.1344 101.715 25.295 101.715 24.4198V12.3198H106.335Z" fill="#FEFEFE"/>
<path d="M68.64 12.3198H63.03H58.41H52.8V16.2798H58.41V31.6798H63.03V16.2798H68.64V12.3198Z" fill="#FEFEFE"/>
<path d="M142.375 12.3198H136.765H132.145H126.535V16.2798H132.145V31.6798H136.765V16.2798H142.375V12.3198Z" fill="#FEFEFE"/>
<path d="M159.17 16.2798V12.3198H150.15H145.53V16.2798V20.0198V23.9798V27.7198V31.6798H150.15H159.17V27.7198H150.15V23.9798H157.85V20.0198H150.15V16.2798H159.17Z" fill="#FEFEFE"/>
<path d="M176 16.2798V12.3198H166.98H162.36V16.2798V20.0198V23.9798V27.7198V31.6798H166.98H176V27.7198H166.98V23.9798H174.68V20.0198H166.98V16.2798H176Z" fill="#FEFEFE"/>
<path d="M0 14.08C0 9.152 0 6.688 0.9592 4.8048C1.80435 3.15013 3.15013 1.80435 4.8048 0.9592C6.688 0 9.152 0 14.08 0H29.92C34.848 0 37.312 0 39.1952 0.9592C40.8499 1.80435 42.1957 3.15013 43.0408 4.8048C44 6.688 44 9.152 44 14.08V29.92C44 34.848 44 37.312 43.0408 39.1952C42.1957 40.8499 40.8499 42.1957 39.1952 43.0408C37.312 44 34.848 44 29.92 44H14.08C9.152 44 6.688 44 4.8048 43.0408C3.15013 42.1957 1.80435 40.8499 0.9592 39.1952C0 37.312 0 34.848 0 29.92V14.08Z" fill="#FEFEFE"/>
<path d="M0 14.08C0 9.152 0 6.688 0.9592 4.8048C1.80435 3.15013 3.15013 1.80435 4.8048 0.9592C6.688 0 9.152 0 14.08 0H29.92C34.848 0 37.312 0 39.1952 0.9592C40.8499 1.80435 42.1957 3.15013 43.0408 4.8048C44 6.688 44 9.152 44 14.08V29.92C44 34.848 44 37.312 43.0408 39.1952C42.1957 40.8499 40.8499 42.1957 39.1952 43.0408C37.312 44 34.848 44 29.92 44H14.08C9.152 44 6.688 44 4.8048 43.0408C3.15013 42.1957 1.80435 40.8499 0.9592 39.1952C0 37.312 0 34.848 0 29.92V14.08Z" fill="url(#paint0_linear_8768_5584)"/>
<path d="M33.6701 10.1981C33.6721 10.0554 33.6356 9.91478 33.5645 9.79097L31.547 7.39932C31.4536 7.28677 31.3375 7.19528 31.2063 7.1309C31.065 7.06128 30.9111 7.02125 30.7538 7.01328C30.5993 7.0083 30.4454 7.03498 30.3015 7.09169C30.1571 7.14644 30.0256 7.23067 29.9155 7.33901L26.776 10.177H33.3656C33.4675 10.1747 33.5695 10.1818 33.6701 10.1981Z" fill="#262626"/>
<path d="M33.6701 10.1981C33.6721 10.0554 33.6356 9.91478 33.5645 9.79097L31.547 7.39932C31.4536 7.28677 31.3375 7.19528 31.2063 7.1309C31.065 7.06128 30.9111 7.02125 30.7538 7.01328C30.5993 7.0083 30.4454 7.03498 30.3015 7.09169C30.1571 7.14644 30.0256 7.23067 29.9155 7.33901L26.776 10.177H33.3656C33.4675 10.1747 33.5695 10.1818 33.6701 10.1981Z" fill="url(#paint1_linear_8768_5584)"/>
<path d="M19.1038 23.6733V35.8156C19.1049 36.0294 19.1666 36.2385 19.2816 36.4187C19.3987 36.6006 19.5664 36.7443 19.7642 36.832C19.959 36.9224 20.1764 36.9529 20.3884 36.9194C20.6012 36.8884 20.8003 36.7962 20.9614 36.654L24.6951 33.3757C24.8185 33.2734 24.9156 33.143 24.9785 32.9956C25.0465 32.8494 25.0795 32.6894 25.0751 32.5281L25.0599 27.6755L19.1038 23.6733Z" fill="#262626"/>
<path d="M19.1038 23.6733V35.8156C19.1049 36.0294 19.1666 36.2385 19.2816 36.4187C19.3987 36.6006 19.5664 36.7443 19.7642 36.832C19.959 36.9224 20.1764 36.9529 20.3884 36.9194C20.6012 36.8884 20.8003 36.7962 20.9614 36.654L24.6951 33.3757C24.8185 33.2734 24.9156 33.143 24.9785 32.9956C25.0465 32.8494 25.0795 32.6894 25.0751 32.5281L25.0599 27.6755L19.1038 23.6733Z" fill="url(#paint2_linear_8768_5584)"/>
<path d="M25.0388 26.9185V20.0692C25.0353 19.8839 24.9876 19.702 24.9001 19.5385C24.8098 19.3755 24.6802 19.2375 24.5231 19.1373L21.7938 17.373H11.4012C11.2787 17.375 11.1566 17.3577 11.0393 17.3218C11.0619 17.37 11.088 17.4164 11.1177 17.4605C11.1845 17.5614 11.267 17.651 11.362 17.7259L11.4616 17.7952L25.0388 26.9185Z" fill="#262626"/>
<path d="M25.0388 26.9185V20.0692C25.0353 19.8839 24.9876 19.702 24.9001 19.5385C24.8098 19.3755 24.6802 19.2375 24.5231 19.1373L21.7938 17.373H11.4012C11.2787 17.375 11.1566 17.3577 11.0393 17.3218C11.0619 17.37 11.088 17.4164 11.1177 17.4605C11.1845 17.5614 11.267 17.651 11.362 17.7259L11.4616 17.7952L25.0388 26.9185Z" fill="url(#paint3_linear_8768_5584)"/>
<path d="M15.5239 10.792C15.3466 10.7931 15.1721 10.8364 15.0148 10.9182C14.8575 11 14.7219 11.118 14.6191 11.2625L14.0763 12.0315L11.1178 16.2056C11.0571 16.2874 11.0169 16.3826 11.0001 16.4831C10.9988 16.5236 11.0071 16.564 11.0243 16.6007C11.0997 16.7425 11.3259 16.7576 11.4013 16.7576H28.709C28.8785 16.7534 29.0448 16.7097 29.1945 16.6302C29.3442 16.5506 29.4732 16.4373 29.5716 16.2991C29.5716 16.2991 29.6801 16.1514 29.6801 16.1483L33.5645 10.792H15.5239Z" fill="#262626"/>
<path d="M15.5239 10.792C15.3466 10.7931 15.1721 10.8364 15.0148 10.9182C14.8575 11 14.7219 11.118 14.6191 11.2625L14.0763 12.0315L11.1178 16.2056C11.0571 16.2874 11.0169 16.3826 11.0001 16.4831C10.9988 16.5236 11.0071 16.564 11.0243 16.6007C11.0997 16.7425 11.3259 16.7576 11.4013 16.7576H28.709C28.8785 16.7534 29.0448 16.7097 29.1945 16.6302C29.3442 16.5506 29.4732 16.4373 29.5716 16.2991C29.5716 16.2991 29.6801 16.1514 29.6801 16.1483L33.5645 10.792H15.5239Z" fill="url(#paint4_linear_8768_5584)"/>
<path d="M15.5239 10.792C15.3466 10.7931 15.1721 10.8364 15.0148 10.9182C14.8575 11 14.7219 11.118 14.6191 11.2625L14.0763 12.0315L11.1178 16.2056C11.0571 16.2874 11.0169 16.3826 11.0001 16.4831C10.9988 16.5236 11.0071 16.564 11.0243 16.6007C11.0997 16.7425 11.3259 16.7576 11.4013 16.7576H28.709C28.8785 16.7534 29.0448 16.7097 29.1945 16.6302C29.3442 16.5506 29.4732 16.4373 29.5716 16.2991C29.5716 16.2991 29.6801 16.1514 29.6801 16.1483L33.5645 10.792H15.5239Z" fill="url(#paint5_linear_8768_5584)"/>
</g>
</g>
<defs>
<linearGradient id="paint0_linear_8768_5584" x1="22" y1="0" x2="22" y2="44" gradientUnits="userSpaceOnUse">
<stop stop-color="#FEFEFE" stop-opacity="0"/>
<stop offset="1" stop-opacity="0.2"/>
</linearGradient>
<linearGradient id="paint1_linear_8768_5584" x1="30.1109" y1="10.2348" x2="30.1844" y2="7.28715" gradientUnits="userSpaceOnUse">
<stop stop-opacity="0.3"/>
<stop offset="1" stop-color="#6EA0C9" stop-opacity="0"/>
</linearGradient>
<linearGradient id="paint2_linear_8768_5584" x1="20.5135" y1="36.8062" x2="19.1638" y2="23.8392" gradientUnits="userSpaceOnUse">
<stop offset="0.2" stop-color="#262626" stop-opacity="0"/>
<stop offset="1" stop-opacity="0.5"/>
</linearGradient>
<linearGradient id="paint3_linear_8768_5584" x1="15.1425" y1="17.3695" x2="24.459" y2="24.7478" gradientUnits="userSpaceOnUse">
<stop stop-opacity="0.5"/>
<stop offset="0.802191" stop-color="#262626" stop-opacity="0"/>
</linearGradient>
<linearGradient id="paint4_linear_8768_5584" x1="21.1549" y1="13.7747" x2="10.7507" y2="13.7747" gradientUnits="userSpaceOnUse">
<stop stop-color="#262626" stop-opacity="0"/>
<stop offset="1" stop-opacity="0.5"/>
</linearGradient>
<linearGradient id="paint5_linear_8768_5584" x1="22.1393" y1="13.7747" x2="32.5434" y2="13.7747" gradientUnits="userSpaceOnUse">
<stop offset="0.16" stop-color="#262626" stop-opacity="0"/>
<stop offset="1" stop-opacity="0.5"/>
</linearGradient>
<clipPath id="clip0_8768_5584">
<rect width="176" height="44" fill="white"/>
</clipPath>
</defs>
</svg>
